<svg xmlns="http://www.w3.org/2000/svg" viewBox="0 0 249.739 41.371" enable-background="new 0 0 249.739 41.371"><path fill-rule="evenodd" clip-rule="evenodd" d="M229.088 29.043c0 5.577 3.703 9.15 10.326 9.15 6.62 0 10.325-3.574 10.325-9.15V17.715c0-2.09-1.31-3.485-3.14-3.485-1.828 0-3.136 1.394-3.136 3.485v11.197c0 2.614-1.96 4.052-4.05 4.052-2.093 0-4.054-1.438-4.054-4.052V17.715c0-2.09-1.307-3.485-3.137-3.485s-3.137 1.394-3.137 3.485v11.328h.002zm-10.277 8.67c1.187-.468 1.956-1.662 1.956-3.267v-9.628c0-2.483 1.917-3.31 3.79-4.183 1.874-.872 3.747-1.002 3.747-3.05 0-2.265-1.524-3.354-3.05-3.354-1.96 0-3.224.873-4.4 2.615h-.087c0-2.004-1.395-2.614-3.05-2.614-1.57 0-3.224 1.046-3.224 3.138v14.05c2.525.966 4.318 3.41 4.318 6.275v.02zM153.975 34.445c0 2.092 1.307 3.486 3.137 3.486s3.137-1.393 3.137-3.485V23.51c0-2.44 1.437-4.314 4.008-4.314 2.266 0 4.096 1.394 4.096 4.314v10.935c0 2.092 1.307 3.486 3.137 3.486s3.14-1.393 3.14-3.485V22.42c0-5.314-3.66-8.45-8.585-8.45-2.963 0-4.836.87-6.057 2.57-.217-1.44-1.264-2.31-2.875-2.31-1.83 0-3.137 1.394-3.137 3.485v16.73zM0 34.402c0 2.483 2.004 3.268 3.442 3.268h7.58c8.976 0 14.9-5.926 14.9-15.075 0-9.672-5.575-15.946-15.335-15.946H3.355C1.395 6.65 0 8 0 10.002v24.4zm6.535-21.74H10.5c6.014 0 8.627 4.05 8.627 9.628 0 5.228-2.57 9.367-8.19 9.367H6.535V12.66zm32.678 1.306c-6.623 0-11.24 5.794-11.24 12.156 0 6.535 4.486 12.068 11.24 12.068 6.754 0 11.24-5.533 11.24-12.068 0-6.36-4.617-12.156-11.24-12.156zm0 5.75c3.44 0 4.967 3.4 4.967 6.406s-1.568 6.317-4.967 6.317c-3.398 0-4.967-3.31-4.967-6.316s1.525-6.405 4.967-6.405zM53.11 34.446c0 2.092 1.308 3.486 3.138 3.486 1.83 0 3.137-1.393 3.137-3.485V23.51c0-2.527 1.133-4.314 3.704-4.314 2.265 0 3.658 1.786 3.658 4.314v10.935c0 2.092 1.308 3.486 3.138 3.486 1.83 0 3.137-1.393 3.137-3.485V23.51c0-2.527 1.395-4.314 3.704-4.314 2.266 0 3.66 1.786 3.66 4.314v10.935c0 2.092 1.307 3.486 3.137 3.486s3.137-1.393 3.137-3.485V22.42c0-5.49-3.485-8.45-8.583-8.45-2.135 0-4.88 1.175-6.622 3.18-1.655-2.092-3.878-3.18-6.49-3.18-2.31 0-4.315.957-5.84 2.613-.218-1.48-1.264-2.353-2.876-2.353-1.83 0-3.138 1.394-3.138 3.485v16.73zM106.005 18.5c0-3.094-4.748-4.532-7.842-4.532-4.967 0-8.496 2.962-8.496 7.32 0 7.188 10.893 6.752 10.893 9.628 0 1.176-.567 1.786-2.485 1.786-2.962 0-4.05-2.135-6.49-2.135-1.744 0-2.702 1.83-2.702 2.79 0 2.83 5.23 4.835 8.757 4.835 5.402 0 8.932-3.18 8.932-7.363 0-7.146-10.892-6.71-10.892-9.63 0-1.22 1.002-1.742 2.135-1.742 2.048 0 4.444 1.83 5.62 1.83 1.48 0 2.57-1.35 2.57-2.79zm20.783-.567c0-3.05-5.185-3.964-7.668-3.964-6.624 0-11.242 5.793-11.242 12.155 0 6.535 4.487 12.068 11.24 12.068 2.267 0 7.67-1.09 7.67-4.313 0-1.48-1.222-2.745-2.702-2.745-.74 0-3.094 1.307-4.662 1.307-3.398 0-5.27-3.224-5.27-6.317 0-3.225 1.698-6.405 5.27-6.405 2.004 0 3.398 1.22 4.967 1.22 1.482 0 2.397-1.7 2.397-3.007zm23.614.392c0-1.612 0-4.095-3.005-4.095-1.525 0-2.832 1.09-3.007 2.614-1.393-1.96-3.66-2.875-5.97-2.875-5.75 0-10.368 5.27-10.368 12.155 0 7.058 4.488 12.068 10.37 12.068 2.396 0 4.356-1.002 5.968-2.92.436 1.656 1.177 2.66 3.007 2.66 3.006 0 3.006-2.484 3.006-4.097v-15.51zm-16.076 7.8c0-3.007 1.525-6.406 4.967-6.406 3.312 0 4.837 3.397 4.837 6.404 0 3.006-1.568 6.317-4.836 6.317-3.397.002-4.966-3.31-4.966-6.316z"/><linearGradient id="a" gradientUnits="userSpaceOnUse" x1="177.051" y1="19.265" x2="212.237" y2="19.265"><stop offset="0" stop-color="#D35243"/><stop offset=".292" stop-color="#D36546"/><stop offset=".577" stop-color="#D47349"/><stop offset=".822" stop-color="#D57C4C"/><stop offset="1" stop-color="#D6804C"/></linearGradient><path fill-rule="evenodd" clip-rule="evenodd" fill="url(#a)" d="M193.826.497c-1.305.426-10.807 8.708-12.498 10.082-4.172 3.39-4.252 3.323-4.252 9.592v13.5c0 1.665-.246 2.893.816 3.85.98.883 2.32.64 3.848.64h23.657c-.012-.155-.018-.312-.018-.47 0-3.71 3.007-6.716 6.716-6.716h.14c.02-4.748-.085-11.018-.084-12.615 0-1.628.114-2.595-.553-3.966-.948-1.943-2.845-3.167-4.5-4.552l-9.84-8.388c-.774-.667-1.89-1.462-3.434-.957z"/><path fill-rule="evenodd" clip-rule="evenodd" d="M208.477 38.05c0 2.075 1.66 3.32 3.855 3.32 1.84 0 3.382-1.482 3.382-3.32 0-2.552-1.542-4.036-3.856-4.036-1.958 0-3.38 1.9-3.38 4.035z"/><g fill-rule="evenodd" clip-rule="evenodd" fill="#fff"><path d="M188.293 26.252c.772-.247 2.566-.214 3.467-.11 2.45.29 2.262 3.056 2.084 5.16-.205 2.42-3.225 2.287-5.136 2.078-2.42-.265-2.286-3.007-2.087-5.13.098-1.02.763-1.707 1.673-1.998zM188.52 17.673c2.183-.518 4.867-.183 5.283 1.712.083.373.083 3.12.02 3.55-.13.896-.87 1.628-1.758 1.856-.596.154-2.964.16-3.565.02-.87-.205-1.633-.85-1.84-1.775-.12-.544-.125-2.907-.02-3.524.18-1.052.955-1.617 1.88-1.837zM197.297 17.683c2.148-.487 4.826-.235 5.268 1.714.123.546.127 2.91.024 3.524-.16.95-.907 1.624-1.758 1.86-.62.173-2.92.173-3.563.036-.865-.185-1.666-.857-1.85-1.766-.076-.387-.083-3.14-.02-3.55.172-1.072.944-1.6 1.897-1.817zM195.38 28.663c0-1.723 1.12-2.552 2.783-2.552 1.883 0 4.454-.286 4.454 2.553 0 2.155.467 4.732-2.645 4.732-4.583 0-4.593-.277-4.593-4.732z"/></g></svg>